<svg version="1.1" id="Layer_1" xmlns="http://www.w3.org/2000/svg" xmlns:xlink="http://www.w3.org/1999/xlink" x="0px" y="0px"
	 width="100%" viewBox="0 0 51 51" enable-background="new 0 0 51 51" xml:space="preserve">
<path fill="#202020" opacity="1.000000" stroke="none" 
	d="
M24.000084,52.000000 
	C16.018534,52.000000 8.536960,52.000000 1.027693,52.000000 
	C1.027693,35.060226 1.027693,18.120457 1.027693,1.090342 
	C17.897575,1.090342 34.795795,1.090342 51.847008,1.090342 
	C51.847008,17.998941 51.847008,34.999313 51.847008,52.000000 
	C42.788361,52.000000 33.644211,52.000000 24.000084,52.000000 
M21.580282,12.208499 
	C18.821777,12.208499 16.063271,12.208499 13.410756,12.208499 
	C13.410756,21.537037 13.410756,30.105465 13.410756,38.677147 
	C22.678749,38.677147 31.590307,38.677147 40.672783,38.677147 
	C40.672783,29.838533 40.672783,21.279165 40.672783,12.208502 
	C34.463741,12.208502 28.512527,12.208502 21.580282,12.208499 
z"/>
<path fill="#EBEDEA" opacity="1.000000" stroke="none" 
	d="
M22.070797,12.208500 
	C28.512527,12.208502 34.463741,12.208502 40.672783,12.208502 
	C40.672783,21.279165 40.672783,29.838533 40.672783,38.677147 
	C31.590307,38.677147 22.678749,38.677147 13.410756,38.677147 
	C13.410756,30.105465 13.410756,21.537037 13.410756,12.208499 
	C16.063271,12.208499 18.821777,12.208499 22.070797,12.208500 
M16.117836,27.459660 
	C16.117836,30.216009 16.117836,32.972359 16.117836,35.638325 
	C23.630783,35.638325 30.496948,35.638325 37.307526,35.638325 
	C37.307526,28.737755 37.307526,22.192341 37.307526,15.675448 
	C30.079905,15.675448 23.210503,15.675448 16.117838,15.675448 
	C16.117838,19.529236 16.117838,23.006950 16.117836,27.459660 
z"/>
<path fill="#2E2C2F" opacity="1.000000" stroke="none" 
	d="
M16.117836,26.972162 
	C16.117838,23.006950 16.117838,19.529236 16.117838,15.675448 
	C23.210503,15.675448 30.079905,15.675448 37.307526,15.675448 
	C37.307526,22.192341 37.307526,28.737755 37.307526,35.638325 
	C30.496948,35.638325 23.630783,35.638325 16.117836,35.638325 
	C16.117836,32.972359 16.117836,30.216009 16.117836,26.972162 
M28.006119,25.979490 
	C28.006119,23.268435 28.006119,20.557379 28.006119,16.563469 
	C23.359627,19.973713 25.998362,23.847898 24.701172,26.729458 
	C23.772913,26.929382 22.734810,27.152964 21.195766,27.484436 
	C23.239321,29.750528 24.957973,31.656340 26.987370,33.906734 
	C29.132994,31.575890 30.941364,29.611410 33.087318,27.280207 
	C30.924742,27.055431 29.610090,26.918787 28.006119,25.979490 
z"/>
<path fill="#FAFCFB" opacity="1.000000" stroke="none" 
	d="
M28.150780,26.380817 
	C29.610090,26.918787 30.924742,27.055431 33.087318,27.280207 
	C30.941364,29.611410 29.132994,31.575890 26.987370,33.906734 
	C24.957973,31.656340 23.239321,29.750528 21.195766,27.484436 
	C22.734810,27.152964 23.772913,26.929382 24.701172,26.729458 
	C25.998362,23.847898 23.359627,19.973713 28.006119,16.563469 
	C28.006119,20.557379 28.006119,23.268435 28.150780,26.380817 
z"/>
</svg>